HIERARCHY
ROOT Hips
{
	OFFSET 0.00000 0.00000 0.00000
	CHANNELS 6 Xposition Yposition Zposition Zrotation Yrotation Xrotation 
	JOINT LHipJoint
	{
		OFFSET 0 0 0
		CHANNELS 3 Zrotation Yrotation Xrotation
		JOINT LeftHip
		{
			OFFSET 3.13874 -1.57224 1.49786
			CHANNELS 3 Zrotation Yrotation Xrotation
			JOINT LeftKnee
			{
				OFFSET 2.10955 -5.79594 0.00000
				CHANNELS 3 Zrotation Yrotation Xrotation
				JOINT LeftAnkle
				{
					OFFSET 2.41843 -6.64458 0.00000
					CHANNELS 3 Zrotation Yrotation Xrotation
					JOINT LeftToe
					{
						OFFSET 0.04713 -0.12948 1.66229
						CHANNELS 3 Zrotation Yrotation Xrotation
						End Site
						{
							OFFSET 0.00000 -0.00000 0.85167
						}
					}
				}
			}
		}
	}
	JOINT RHipJoint
	{
		OFFSET 0 0 0
		CHANNELS 3 Zrotation Yrotation Xrotation
		JOINT RightHip
		{
			OFFSET -3.13988 -1.57224 1.49786
			CHANNELS 3 Zrotation Yrotation Xrotation
			JOINT RightKnee
			{
				OFFSET -2.15006 -5.90725 0.00000
				CHANNELS 3 Zrotation Yrotation Xrotation
				JOINT RightAnkle
				{
					OFFSET -2.34496 -6.44273 0.00000
					CHANNELS 3 Zrotation Yrotation Xrotation
					JOINT RightToe
					{
						OFFSET -0.08699 -0.23900 1.55223
						CHANNELS 3 Zrotation Yrotation Xrotation
						End Site
						{
							OFFSET -0.00000 -0.00000 0.80281
						}
					}
				}
			}
		}
	}
	JOINT lowerback
	{
		OFFSET 0 0 0
		CHANNELS 3 Zrotation Yrotation Xrotation
		JOINT Chest
		{
			OFFSET 0.01292 1.96517 -0.16495
			CHANNELS 3 Zrotation Yrotation Xrotation
			JOINT Chest2
			{
				OFFSET 0.02122 1.88666 0.19706
				CHANNELS 3 Zrotation Yrotation Xrotation
				JOINT lowerneck
				{
					OFFSET 0 0 0
					CHANNELS 3 Zrotation Yrotation Xrotation
					JOINT Neck
					{
						OFFSET -0.01683 1.81591 0.07903
						CHANNELS 3 Zrotation Yrotation Xrotation
						JOINT Head
						{
							OFFSET 0.00815 1.74013 -0.47700
							CHANNELS 3 Zrotation Yrotation Xrotation
							End Site
							{
								OFFSET -0.00204 1.83225 -0.16933
							}
						}
					}
				}
				JOINT LeftCollar
				{
					OFFSET 0 0 0
					CHANNELS 3 Zrotation Yrotation Xrotation
					JOINT LeftShoulder
					{
						OFFSET 3.38482 1.41533 0.19802
CHANNELS 3 Zrotation Xrotation Yrotation
						JOINT LeftElbow
						{
OFFSET 0 -4.327120 0.000000
CHANNELS 3 Zrotation Xrotation Yrotation
							JOINT LeftWrist
							{
OFFSET 0 -3.285870 -0.000000
CHANNELS 3 Zrotation Xrotation Yrotation
								JOINT lhand
								{
									OFFSET 0 0 0
CHANNELS 3 Zrotation Xrotation Yrotation
									JOINT LFingers
									{
OFFSET 0 -0.433160 -0.000000
CHANNELS 3 Zrotation Xrotation Yrotation
										End Site
										{
OFFSET 0 -0.349220 -0.000000
										}
									}
								}
								JOINT LThumb
								{
OFFSET 0 0.000000 0.000000
CHANNELS 3 Zrotation Xrotation Yrotation
									End Site
									{
OFFSET 0 -0.354560 0.354560
									}
								}
							}
						}
					}
				}
				JOINT RightCollar
				{
					OFFSET 0 0 0
					CHANNELS 3 Zrotation Yrotation Xrotation
					JOINT RightShoulder
					{
						OFFSET -3.09725 1.62858 -0.14144
CHANNELS 3 Zrotation Xrotation Yrotation
						JOINT RightElbow
						{
OFFSET 0 -4.291040 0.000000
CHANNELS 3 Zrotation Xrotation Yrotation
							JOINT RightWrist
							{
OFFSET 0 -3.227200 -0.000000
CHANNELS 3 Zrotation Xrotation Yrotation
								JOINT rhand
								{
									OFFSET 0 0 0
CHANNELS 3 Zrotation Xrotation Yrotation
									JOINT RFingers
									{
OFFSET 0 -0.543620 -0.000000
CHANNELS 3 Zrotation Xrotation Yrotation
										End Site
										{
OFFSET 0 -0.438280 -0.000000
										}
									}
								}
								JOINT RThumb
								{
OFFSET 0 0.000000 0.000000
CHANNELS 3 Zrotation Xrotation Yrotation
									End Site
									{
OFFSET 0 -0.444970 0.444970
									}
								}
							}
						}
					}
				}
			}
		}
	}
}
MOTION
Frames: 8
Frame Time: 0.008333333333333333
-10.388400 15.832800 2.956300 -145.740000 -82.172000 154.821000 0.000000 0.000000 0.000000 -8.493400 -34.954700 -19.649300 0.161900 2.592100 7.145100 0.250600 9.573200 -17.261400 9.087200 -16.863500 -56.391400 0.000000 0.000000 0.000000 39.435400 10.127600 10.587200 -0.425300 4.185400 -11.599000 -0.287800 -18.926600 -28.967900 -0.050400 1.449300 -3.986000 2.301300 3.076700 6.183000 2.201800 4.444400 -10.268000 0.368900 1.859100 -14.810700 0.998800 -0.925700 -18.619300 -0.854600 -2.462600 35.084500 -1.091300 -1.390900 15.422700 -0.000000 0.000000 0.000000 6.522700 7.577200 5.395900 25.476500 -36.687000 8.573000 35.630300 27.149000 -27.643200 0.000000 0.000000 0.000000 -7.125000 0.000000 0.000000 6.703400 62.654900 -2.882000 -0.000000 0.000000 0.000000 -15.899500 14.501900 48.144200 -17.398500 -27.380200 -4.269000 -36.406200 -2.435500 15.780300 0.000000 0.000000 0.000000 7.125000 0.000000 -0.000000 -8.629200 49.133400 0.885600
-10.395204 15.836630 2.948481 -146.357389 -82.141210 155.370369 0.000000 0.000000 0.000000 -8.443445 -35.160949 -19.538028 0.172904 2.678655 7.385288 0.730383 6.541565 -19.801510 10.302146 -17.572291 -60.488229 0.000000 0.000000 0.000000 39.446549 10.153018 10.677032 -0.421956 4.169023 -11.552683 -0.286801 -18.878123 -28.899414 -0.040429 1.298296 -3.569986 2.164660 3.040951 6.203840 2.283380 4.387374 -10.240764 0.544845 1.853804 -14.809794 1.003747 -0.884142 -18.689145 -0.914693 -2.383272 35.136793 -1.105517 -1.365669 15.464232 0.000000 0.000000 0.000000 6.033140 8.415760 1.450368 22.743132 -33.797964 6.998803 51.069842 32.345295 -18.861771 0.000000 0.000000 0.000000 -7.125000 0.000000 0.000000 26.206820 56.562701 -7.847165 0.000000 0.000000 0.000000 -16.000439 14.234436 47.758298 -17.273951 -27.217512 -4.211913 -33.096692 -0.425977 18.583878 0.000000 0.000000 0.000000 7.125000 0.000000 0.000000 -5.030160 51.755977 0.769638
-10.401295 15.839146 2.940846 -146.727806 -82.086940 155.712212 0.000000 0.000000 0.000000 -8.391673 -35.234088 -19.479325 0.177186 2.711404 7.476311 1.042018 5.998908 -22.330142 11.360060 -18.101707 -63.939462 0.000000 0.000000 0.000000 39.510768 10.207090 10.751425 -0.419954 4.159387 -11.525549 -0.285100 -18.882813 -28.892695 -0.043698 1.348272 -3.707729 2.065115 3.032438 6.183418 2.353958 4.369595 -10.199480 0.682789 1.863079 -14.761237 0.910580 -0.880217 -18.783518 -0.880227 -2.353708 35.136916 -1.070364 -1.359054 15.488858 0.000000 0.000000 0.000000 5.606829 9.390349 -3.326545 20.578344 -31.322264 5.834097 62.949500 41.776316 -16.864997 0.000000 0.000000 0.000000 -7.125000 0.000000 0.000000 44.161695 58.018978 -17.037256 0.000000 0.000000 0.000000 -16.090172 14.075173 47.665370 -17.275773 -27.219839 -4.212742 -29.535409 -0.139500 21.016901 0.000000 0.000000 0.000000 7.125000 0.000000 0.000000 -0.891900 53.775239 0.101715
-10.409833 15.840931 2.933217 -146.977162 -82.026929 155.940255 0.000000 0.000000 0.000000 -8.399226 -35.115538 -19.460442 0.178218 2.719473 7.498727 1.493687 6.246352 -25.946992 12.466751 -18.571499 -67.450978 0.000000 0.000000 0.000000 39.599008 10.258497 10.837648 -0.418040 4.150100 -11.499418 -0.283198 -18.903379 -28.905046 -0.051408 1.462793 -4.023181 1.985427 3.036562 6.124668 2.434293 4.370754 -10.143454 0.818968 1.880575 -14.669756 0.731775 -0.871199 -18.901667 -0.765795 -2.312509 35.131331 -0.984122 -1.346580 15.519243 0.000000 0.000000 0.000000 5.149467 10.585317 -10.029279 18.610880 -28.916838 4.849042 66.821929 53.956011 -23.165324 0.000000 0.000000 0.000000 -7.125000 0.000000 0.000000 63.170334 66.498779 -38.629891 0.000000 0.000000 0.000000 -16.292735 14.006143 48.114959 -17.433637 -27.425841 -4.285216 -33.473600 -0.222043 18.725095 0.000000 0.000000 0.000000 7.125000 0.000000 0.000000 -5.466594 52.013992 0.945998
-10.419207 15.841328 2.928305 -147.179750 -81.972695 156.125730 0.000000 0.000000 0.000000 -8.442309 -34.946073 -19.472997 0.181540 2.744269 7.567675 1.958410 5.248229 -28.736925 13.097182 -18.816993 -69.427141 0.000000 0.000000 0.000000 39.662713 10.297160 10.921107 -0.416151 4.140772 -11.473092 -0.301112 -18.889046 -29.016003 -0.055123 1.515033 -4.167099 1.997883 3.042169 6.085594 2.473792 4.382056 -10.114831 0.855794 1.888426 -14.612983 0.605926 -0.843554 -19.021866 -0.678220 -2.256858 35.175035 -0.916967 -1.325779 15.572786 0.000000 0.000000 0.000000 4.820169 12.414194 -20.227682 17.071338 -26.948229 4.121511 65.579114 62.414717 -34.197279 0.000000 0.000000 0.000000 -7.125000 0.000000 0.000000 80.937567 -12.541995 39.116556 0.000000 0.000000 0.000000 -16.389979 13.862109 47.831052 -17.489388 -27.498415 -4.310846 -30.678566 1.097312 21.063003 0.000000 0.000000 0.000000 7.125000 0.000000 0.000000 -2.090337 54.058054 0.363314
-10.426707 15.840985 2.923957 -147.733022 -81.943486 156.680329 0.000000 0.000000 0.000000 -8.518201 -34.840157 -19.521839 0.187220 2.786420 7.684611 1.962843 4.985925 -28.630078 13.072981 -18.808344 -69.352136 0.000000 0.000000 0.000000 39.645742 10.353175 10.957919 -0.413075 4.125617 -11.430432 -0.306185 -18.893771 -29.058473 -0.055897 1.525378 -4.195772 1.942576 3.033526 6.061968 2.496617 4.363505 -10.123491 0.916318 1.886923 -14.614922 0.578510 -0.799898 -19.019735 -0.665805 -2.185618 35.177781 -0.893772 -1.298048 15.574897 0.000000 0.000000 0.000000 4.733583 13.214200 -24.289909 16.687520 -26.444012 3.947214 66.422760 65.276208 -37.532247 0.000000 0.000000 0.000000 -7.125000 0.000000 0.000000 89.547559 -76.455168 103.475479 0.000000 0.000000 0.000000 -16.453846 13.715088 47.528883 -17.475126 -27.479860 -4.304300 -26.815304 2.027540 23.489658 0.000000 0.000000 0.000000 7.125000 0.000000 0.000000 2.600893 55.921732 -0.710029
-10.434430 15.841245 2.920043 -148.498192 -81.947442 157.455806 0.000000 0.000000 0.000000 -8.652270 -34.729429 -19.555755 0.191470 2.818258 7.773166 1.960037 4.809282 -28.521506 13.045550 -18.798533 -69.267011 0.000000 0.000000 0.000000 39.571707 10.389961 10.994587 -0.412458 4.122764 -11.422349 -0.314390 -18.829305 -29.036010 -0.047516 1.406378 -3.867618 1.932652 3.056168 6.041953 2.436712 4.385441 -10.145026 0.852247 1.893736 -14.623187 0.733305 -0.827934 -18.953549 -0.795654 -2.230659 35.095391 -0.981534 -1.314786 15.514299 0.000000 0.000000 0.000000 4.813579 13.172112 -24.272407 16.603651 -26.332349 3.909926 64.621752 63.606221 -38.407701 0.000000 0.000000 0.000000 -7.125000 0.000000 0.000000 87.260980 -77.465303 100.025053 0.000000 0.000000 0.000000 -16.388905 13.655333 47.525649 -17.479850 -27.486004 -4.306473 -26.156412 1.848184 23.553840 0.000000 0.000000 0.000000 7.125000 0.000000 0.000000 3.323028 55.853114 -0.885711
-10.442026 15.841091 2.914964 -148.430299 -81.934778 157.403489 0.000000 0.000000 0.000000 -8.661867 -34.522995 -19.631447 0.194743 2.842010 7.839160 1.943516 4.667380 -28.340782 13.038630 -18.796011 -69.245294 0.000000 0.000000 0.000000 39.629204 10.395939 11.039280 -0.413994 4.130372 -11.443721 -0.331197 -18.758996 -29.069123 -0.041721 1.317927 -3.623901 2.077209 3.094265 6.028055 2.360292 4.446528 -10.181612 0.676829 1.899959 -14.640008 0.913002 -0.900437 -18.826751 -0.968320 -2.334260 34.980976 -1.100664 -1.359770 15.421993 0.000000 0.000000 0.000000 4.962543 13.167295 -24.316590 16.544238 -26.253017 3.883572 62.708221 62.022816 -39.233444 0.000000 0.000000 0.000000 -7.125000 0.000000 0.000000 84.334371 -77.673702 95.024337 0.000000 0.000000 0.000000 -16.190086 13.671008 47.370294 -17.498934 -27.510834 -4.315255 -26.159630 1.714280 23.497752 0.000000 0.000000 0.000000 7.125000 0.000000 0.000000 3.301082 55.794055 -0.875032
